<svg xmlns="http://www.w3.org/2000/svg" width="170" height="48" viewBox="0 0 181.366 48">
  <g id="mator" transform="translate(0.5 0.5)">
    <path id="Exclusión_1" data-name="Exclusión 1" d="M-4861.883,724.5h-105.364v-5.081h105.364Zm-1.386-8.892h-102.592V677.5h102.592Zm-52.5-32.824a16.2,16.2,0,0,0-7.486,1.753,13.848,13.848,0,0,0-5.408,4.859,12.713,12.713,0,0,0-2,6.993,12.774,12.774,0,0,0,2,7.031,13.855,13.855,0,0,0,5.407,4.859,16.212,16.212,0,0,0,7.487,1.753,16.218,16.218,0,0,0,7.487-1.753,13.7,13.7,0,0,0,5.385-4.859,12.866,12.866,0,0,0,1.975-7.031,12.805,12.805,0,0,0-1.975-6.993,13.723,13.723,0,0,0-5.366-4.859,16.16,16.16,0,0,0-7.5-1.753ZM-4883.5,699.4h2.745l6.405,10.366h6.737l-6.945-10.785a8.7,8.7,0,0,0,4.95-2.915,7.518,7.518,0,0,0,1.663-4.745,7.526,7.526,0,0,0-1.187-4.134,8.105,8.105,0,0,0-3.555-2.934,13.786,13.786,0,0,0-5.74-1.086h-10.9v26.6h5.822V699.4Zm-78.566-16.234v4.306h7.736v22.293h5.823V687.471h7.737v-4.306Zm-9.648,26.6h-6.156l-1.913-5.068h-11.563l-1.913,5.068h-6.114l10.44-26.638h6.779l10.439,26.638Zm-13.851-20.465h0l-4.2,11.128h8.4Zm-25.035,20.464h-5.823v-17.3l-7.78,17.3h-4.408l-7.819-17.3v17.3h-5.823v-26.6h6.612l9.233,19.778,9.234-19.778h6.571v26.6Zm94.827-4.5a9.673,9.673,0,0,1-4.637-1.086,7.739,7.739,0,0,1-3.141-3.106,9.537,9.537,0,0,1-1.122-4.687,9.419,9.419,0,0,1,1.122-4.668,7.655,7.655,0,0,1,3.141-3.067,9.808,9.808,0,0,1,4.637-1.067,9.689,9.689,0,0,1,4.617,1.067,7.68,7.68,0,0,1,3.12,3.068,9.424,9.424,0,0,1,1.122,4.668,9.532,9.532,0,0,1-1.122,4.687,7.779,7.779,0,0,1-3.12,3.105,9.558,9.558,0,0,1-4.617,1.087Zm37.141-9.87h-4.866v-7.812h4.866a5.309,5.309,0,0,1,3.535,1.01,3.57,3.57,0,0,1,1.165,2.839,3.731,3.731,0,0,1-1.165,2.915,5.182,5.182,0,0,1-3.538,1.048Z" transform="translate(5042.249 -677.5)" stroke="rgba(0,0,0,0)" stroke-miterlimit="10" stroke-width="1"/>
  </g>
</svg>
